<mxfile host="app.diagrams.net" modified="2020-10-09T02:13:38.221Z" agent="5.0 (Windows)" etag="hm60yuv5xh7MGaWJCgbn" version="13.7.9" type="github">
  <diagram id="F7xgFaGj4VB6nLWe5UGR" name="Page-1">
    <mxGraphModel dx="1422" dy="770" grid="1" gridSize="10" guides="1" tooltips="1" connect="1" arrows="1" fold="1" page="1" pageScale="1" pageWidth="827" pageHeight="1169" math="0" shadow="0">
      <root>
        <mxCell id="0" />
        <mxCell id="1" parent="0" />
        <mxCell id="4S_U7BGDiCYhJZUOM0tg-42" style="edgeStyle=orthogonalEdgeStyle;rounded=0;orthogonalLoop=1;jettySize=auto;html=1;exitX=1;exitY=0.25;exitDx=0;exitDy=0;exitPerimeter=0;" parent="1" source="4S_U7BGDiCYhJZUOM0tg-10" target="4S_U7BGDiCYhJZUOM0tg-26" edge="1">
          <mxGeometry relative="1" as="geometry">
            <Array as="points">
              <mxPoint x="425" y="400" />
              <mxPoint x="600" y="400" />
            </Array>
          </mxGeometry>
        </mxCell>
        <mxCell id="4S_U7BGDiCYhJZUOM0tg-43" style="edgeStyle=orthogonalEdgeStyle;rounded=0;orthogonalLoop=1;jettySize=auto;html=1;exitX=1;exitY=0.5;exitDx=0;exitDy=0;exitPerimeter=0;" parent="1" source="4S_U7BGDiCYhJZUOM0tg-10" target="4S_U7BGDiCYhJZUOM0tg-27" edge="1">
          <mxGeometry relative="1" as="geometry">
            <Array as="points">
              <mxPoint x="425" y="410" />
              <mxPoint x="473" y="410" />
              <mxPoint x="473" y="398" />
            </Array>
          </mxGeometry>
        </mxCell>
        <mxCell id="4S_U7BGDiCYhJZUOM0tg-44" style="edgeStyle=orthogonalEdgeStyle;rounded=0;orthogonalLoop=1;jettySize=auto;html=1;exitX=1;exitY=0.75;exitDx=0;exitDy=0;exitPerimeter=0;" parent="1" source="4S_U7BGDiCYhJZUOM0tg-10" target="4S_U7BGDiCYhJZUOM0tg-28" edge="1">
          <mxGeometry relative="1" as="geometry">
            <Array as="points">
              <mxPoint x="425" y="420" />
              <mxPoint x="480" y="420" />
              <mxPoint x="480" y="438" />
            </Array>
          </mxGeometry>
        </mxCell>
        <mxCell id="4S_U7BGDiCYhJZUOM0tg-45" style="edgeStyle=orthogonalEdgeStyle;rounded=0;orthogonalLoop=1;jettySize=auto;html=1;exitX=0.985;exitY=0.985;exitDx=0;exitDy=0;exitPerimeter=0;" parent="1" source="4S_U7BGDiCYhJZUOM0tg-10" target="4S_U7BGDiCYhJZUOM0tg-30" edge="1">
          <mxGeometry relative="1" as="geometry">
            <Array as="points">
              <mxPoint x="424" y="430" />
              <mxPoint x="473" y="430" />
              <mxPoint x="473" y="450" />
              <mxPoint x="600" y="450" />
            </Array>
          </mxGeometry>
        </mxCell>
        <mxCell id="4S_U7BGDiCYhJZUOM0tg-10" value="" style="points=[[0.015,0.015,0],[0.985,0.015,0],[0.985,0.985,0],[0.015,0.985,0],[0.25,0,0],[0.5,0,0],[0.75,0,0],[1,0.25,0],[1,0.5,0],[1,0.75,0],[0.75,1,0],[0.5,1,0],[0.25,1,0],[0,0.75,0],[0,0.5,0],[0,0.25,0]];verticalLabelPosition=bottom;html=1;verticalAlign=top;aspect=fixed;align=center;pointerEvents=1;shape=mxgraph.cisco19.rect;prIcon=l2_switch;fillColor=#FAFAFA;strokeColor=#005073;" parent="1" vertex="1">
          <mxGeometry x="375" y="395" width="50" height="50" as="geometry" />
        </mxCell>
        <mxCell id="4S_U7BGDiCYhJZUOM0tg-22" value="&lt;span class=&quot;text-bold&quot;&gt; &lt;/span&gt; &lt;div class=&quot;sku-info-card&quot; title=&quot;Нажмите, чтобы скопировать артикул в буфер обмена&quot;&gt;&lt;span&gt; SNR-S2982G-24T&lt;/span&gt;&lt;/div&gt;" style="text;html=1;align=center;verticalAlign=middle;resizable=0;points=[];autosize=1;" parent="1" vertex="1">
          <mxGeometry x="340" y="460" width="120" height="20" as="geometry" />
        </mxCell>
        <mxCell id="4S_U7BGDiCYhJZUOM0tg-26" value="" style="strokeColor=#666666;html=1;labelPosition=right;align=left;spacingLeft=15;shadow=0;dashed=0;outlineConnect=0;shape=mxgraph.rack.general.1u_rack_server;" parent="1" vertex="1">
          <mxGeometry x="520" y="350" width="160" height="15" as="geometry" />
        </mxCell>
        <mxCell id="4S_U7BGDiCYhJZUOM0tg-27" value="" style="strokeColor=#666666;html=1;labelPosition=right;align=left;spacingLeft=15;shadow=0;dashed=0;outlineConnect=0;shape=mxgraph.rack.general.1u_rack_server;" parent="1" vertex="1">
          <mxGeometry x="520" y="390" width="160" height="15" as="geometry" />
        </mxCell>
        <mxCell id="4S_U7BGDiCYhJZUOM0tg-28" value="" style="strokeColor=#666666;html=1;labelPosition=right;align=left;spacingLeft=15;shadow=0;dashed=0;outlineConnect=0;shape=mxgraph.rack.general.1u_rack_server;" parent="1" vertex="1">
          <mxGeometry x="520" y="430" width="160" height="15" as="geometry" />
        </mxCell>
        <mxCell id="4S_U7BGDiCYhJZUOM0tg-30" value="" style="strokeColor=#666666;html=1;labelPosition=right;align=left;spacingLeft=15;shadow=0;dashed=0;outlineConnect=0;shape=mxgraph.rack.general.1u_rack_server;" parent="1" vertex="1">
          <mxGeometry x="520" y="470" width="160" height="15" as="geometry" />
        </mxCell>
        <mxCell id="j4auOmM49Ux1kiEKCDZ0-3" value="&lt;div&gt;esxi_host_1&lt;/div&gt;" style="text;html=1;strokeColor=none;fillColor=none;align=center;verticalAlign=middle;whiteSpace=wrap;rounded=0;" vertex="1" parent="1">
          <mxGeometry x="700" y="425" width="40" height="20" as="geometry" />
        </mxCell>
        <mxCell id="j4auOmM49Ux1kiEKCDZ0-4" value="&lt;div&gt;esxi_host_2&lt;/div&gt;" style="text;html=1;strokeColor=none;fillColor=none;align=center;verticalAlign=middle;whiteSpace=wrap;rounded=0;" vertex="1" parent="1">
          <mxGeometry x="700" y="470" width="40" height="20" as="geometry" />
        </mxCell>
        <mxCell id="j4auOmM49Ux1kiEKCDZ0-5" value="&lt;div&gt;esxi_storage&lt;/div&gt;" style="text;html=1;strokeColor=none;fillColor=none;align=center;verticalAlign=middle;whiteSpace=wrap;rounded=0;" vertex="1" parent="1">
          <mxGeometry x="700" y="385" width="40" height="20" as="geometry" />
        </mxCell>
        <mxCell id="j4auOmM49Ux1kiEKCDZ0-6" value="&lt;div&gt;Vm_esxi_hosts&lt;br&gt;&lt;/div&gt;&lt;div&gt;ipmi_interfaces:&lt;/div&gt;&lt;div&gt;esxi1 192.168.10.3/24&lt;/div&gt;&lt;div&gt;esxi2 192.168.10.5/24&lt;/div&gt;&lt;div&gt;storage_esxi 192.168.10.9/24&lt;/div&gt;&lt;div&gt;&lt;br&gt;&lt;/div&gt;" style="text;html=1;strokeColor=none;fillColor=none;spacing=5;spacingTop=-20;whiteSpace=wrap;overflow=hidden;rounded=0;" vertex="1" parent="1">
          <mxGeometry x="40" y="60" width="190" height="120" as="geometry" />
        </mxCell>
        <mxCell id="j4auOmM49Ux1kiEKCDZ0-13" style="edgeStyle=orthogonalEdgeStyle;rounded=0;orthogonalLoop=1;jettySize=auto;html=1;exitX=0.25;exitY=1;exitDx=0;exitDy=0;exitPerimeter=0;" edge="1" parent="1" source="j4auOmM49Ux1kiEKCDZ0-8" target="4S_U7BGDiCYhJZUOM0tg-26">
          <mxGeometry relative="1" as="geometry">
            <Array as="points">
              <mxPoint x="580" y="250" />
              <mxPoint x="580" y="300" />
              <mxPoint x="550" y="300" />
            </Array>
          </mxGeometry>
        </mxCell>
        <mxCell id="j4auOmM49Ux1kiEKCDZ0-15" style="edgeStyle=orthogonalEdgeStyle;rounded=0;orthogonalLoop=1;jettySize=auto;html=1;exitX=0.75;exitY=1;exitDx=0;exitDy=0;exitPerimeter=0;" edge="1" parent="1" source="j4auOmM49Ux1kiEKCDZ0-8" target="4S_U7BGDiCYhJZUOM0tg-27">
          <mxGeometry relative="1" as="geometry">
            <mxPoint x="650" y="300" as="targetPoint" />
            <Array as="points">
              <mxPoint x="600" y="250" />
              <mxPoint x="600" y="320" />
              <mxPoint x="650" y="320" />
            </Array>
          </mxGeometry>
        </mxCell>
        <mxCell id="j4auOmM49Ux1kiEKCDZ0-16" style="edgeStyle=orthogonalEdgeStyle;rounded=0;orthogonalLoop=1;jettySize=auto;html=1;exitX=0.5;exitY=1;exitDx=0;exitDy=0;exitPerimeter=0;entryX=0.938;entryY=0.2;entryDx=0;entryDy=0;entryPerimeter=0;" edge="1" parent="1" source="j4auOmM49Ux1kiEKCDZ0-8" target="4S_U7BGDiCYhJZUOM0tg-28">
          <mxGeometry relative="1" as="geometry">
            <mxPoint x="640" y="420" as="targetPoint" />
            <Array as="points">
              <mxPoint x="590" y="250" />
              <mxPoint x="590" y="340" />
              <mxPoint x="670" y="340" />
            </Array>
          </mxGeometry>
        </mxCell>
        <mxCell id="j4auOmM49Ux1kiEKCDZ0-17" style="edgeStyle=orthogonalEdgeStyle;rounded=0;orthogonalLoop=1;jettySize=auto;html=1;exitX=0.985;exitY=0.985;exitDx=0;exitDy=0;exitPerimeter=0;entryX=0.8;entryY=0.067;entryDx=0;entryDy=0;entryPerimeter=0;" edge="1" parent="1" source="j4auOmM49Ux1kiEKCDZ0-8" target="4S_U7BGDiCYhJZUOM0tg-30">
          <mxGeometry relative="1" as="geometry">
            <mxPoint x="630" y="460" as="targetPoint" />
            <Array as="points">
              <mxPoint x="610" y="249" />
              <mxPoint x="610" y="360" />
              <mxPoint x="648" y="360" />
            </Array>
          </mxGeometry>
        </mxCell>
        <mxCell id="j4auOmM49Ux1kiEKCDZ0-8" value="" style="points=[[0.015,0.015,0],[0.985,0.015,0],[0.985,0.985,0],[0.015,0.985,0],[0.25,0,0],[0.5,0,0],[0.75,0,0],[1,0.25,0],[1,0.5,0],[1,0.75,0],[0.75,1,0],[0.5,1,0],[0.25,1,0],[0,0.75,0],[0,0.5,0],[0,0.25,0]];verticalLabelPosition=bottom;html=1;verticalAlign=top;aspect=fixed;align=center;pointerEvents=1;shape=mxgraph.cisco19.rect;prIcon=l2_switch;fillColor=#FAFAFA;strokeColor=#005073;" vertex="1" parent="1">
          <mxGeometry x="570" y="200" width="50" height="50" as="geometry" />
        </mxCell>
        <mxCell id="j4auOmM49Ux1kiEKCDZ0-10" value="&lt;span class=&quot;text-bold&quot;&gt; &lt;/span&gt; &lt;div class=&quot;sku-info-card&quot; title=&quot;Нажмите, чтобы скопировать артикул в буфер обмена&quot;&gt;&lt;span&gt; SNR-S2990G-24FX&lt;/span&gt;&lt;/div&gt;" style="text;html=1;align=center;verticalAlign=middle;resizable=0;points=[];autosize=1;" vertex="1" parent="1">
          <mxGeometry x="535" y="180" width="120" height="20" as="geometry" />
        </mxCell>
        <mxCell id="j4auOmM49Ux1kiEKCDZ0-18" value="&lt;div&gt;SNR-S2990-24FX&lt;/div&gt;&lt;div&gt;10Gb_sfp+(port1)___HpG6_SKAT silicom&amp;nbsp; 10Gb_sfp+ (port1)&lt;br&gt;&lt;/div&gt;&lt;div&gt;10Gb_sfp+(port2)___HpG6_SKAT silicom&amp;nbsp; 10Gb_sfp+ (port2)&lt;/div&gt;&lt;div&gt;10Gb_sfp+(port3)___Esxi_data_storage snr_e2p10Gs-b 10Gb_sfp+ (port1)&lt;/div&gt;&lt;div&gt;10Gb_sfp+(port4)___Esxi_host_1 snr_e2p10Gs-b 10Gb_sfp+ (port1)&lt;/div&gt;&lt;div&gt;10Gb_sfp+(port5)___Esxi_host_2 snr_e2p10Gs-b 10Gb_sfp+ (port1)&lt;/div&gt;&lt;div&gt;&lt;br&gt;&lt;/div&gt;" style="text;html=1;strokeColor=none;fillColor=none;spacing=5;spacingTop=-20;whiteSpace=wrap;overflow=hidden;rounded=0;" vertex="1" parent="1">
          <mxGeometry x="40" y="200" width="440" height="120" as="geometry" />
        </mxCell>
        <mxCell id="j4auOmM49Ux1kiEKCDZ0-20" value="&lt;div&gt;SNR-S2982G-24T&lt;/div&gt;&lt;div&gt;1G(port1)__HpG6_SKAT ipmi(ilo)_port1G&lt;br&gt;&lt;/div&gt;&lt;div&gt;1G(port2)__HpG6_SKAT ser_on_board_lan port1G&lt;br&gt;&lt;/div&gt;&lt;div&gt;1G(port3)__Esxi_data_storage ipmi(ilo)_port1G&lt;/div&gt;&lt;div&gt;1G(port4)__Esxi_data_storage serv_on_board_lan port1G&lt;/div&gt;&lt;div&gt;1G(port5)__Esxi_host_1 ipmi(ilo)_port1G&lt;/div&gt;&lt;div&gt;1G(port6)__Esxi_host_1 serv_on_board_lan port1G&lt;/div&gt;&lt;div&gt;1G(port7)__Esxi_host_2 ipmi(ilo)_port1G&lt;/div&gt;&lt;div&gt;1G(port8)__Esxi_host_2 serv_on_board_lan port1G&lt;/div&gt;" style="text;html=1;strokeColor=none;fillColor=none;spacing=5;spacingTop=-20;whiteSpace=wrap;overflow=hidden;rounded=0;" vertex="1" parent="1">
          <mxGeometry x="40" y="365" width="330" height="120" as="geometry" />
        </mxCell>
        <mxCell id="j4auOmM49Ux1kiEKCDZ0-21" value="" style="points=[[0.015,0.015,0],[0.985,0.015,0],[0.985,0.985,0],[0.015,0.985,0],[0.25,0,0],[0.5,0,0],[0.75,0,0],[1,0.25,0],[1,0.5,0],[1,0.75,0],[0.75,1,0],[0.5,1,0],[0.25,1,0],[0,0.75,0],[0,0.5,0],[0,0.25,0]];verticalLabelPosition=bottom;html=1;verticalAlign=top;aspect=fixed;align=center;pointerEvents=1;shape=mxgraph.cisco19.rect;prIcon=l3_switch;fillColor=#FAFAFA;strokeColor=#005073;" vertex="1" parent="1">
          <mxGeometry x="570" y="200" width="50" height="50" as="geometry" />
        </mxCell>
      </root>
    </mxGraphModel>
  </diagram>
</mxfile>
